<svg xmlns="http://www.w3.org/2000/svg" viewBox="0 0 256 256">
  <defs>
    <linearGradient id="bg" x1="0" y1="0" x2="1" y2="1">
      <stop offset="0" stop-color="#f8f3e7"/>
      <stop offset="1" stop-color="#efe7d3"/>
    </linearGradient>
    <linearGradient id="ring" x1="0" y1="0" x2="1" y2="1">
      <stop offset="0" stop-color="#1f5f58"/>
      <stop offset="1" stop-color="#173b39"/>
    </linearGradient>
  </defs>
  <rect x="12" y="12" width="232" height="232" rx="56" fill="url(#bg)"/>
  <circle cx="128" cy="132" r="74" fill="#ffffff" opacity=".78"/>
  <circle cx="128" cy="132" r="68" fill="none" stroke="url(#ring)" stroke-width="12"/>
  <g stroke="#b8913f" stroke-width="5" stroke-linecap="round">
    <path d="M128 71v10"/><path d="M128 183v10"/>
    <path d="M67 132h10"/><path d="M179 132h10"/>
  </g>
  <path d="M128 132V94" stroke="#173b39" stroke-width="10" stroke-linecap="round"/>
  <path d="M128 132l31 20" stroke="#1f5f58" stroke-width="10" stroke-linecap="round"/>
  <circle cx="128" cy="132" r="9" fill="#b8913f"/>
  <path d="M87 63h82" stroke="#1f5f58" stroke-width="8" stroke-linecap="round"/>
  <path d="M98 63v-13M158 63v-13" stroke="#1f5f58" stroke-width="8" stroke-linecap="round"/>
  <path d="M92 50h72l-12-14h-48z" fill="#1f5f58"/>
  <path d="M128 33c0-10 9-17 17-17-3 4-5 8-5 12 0 5 2 9 5 12-8 0-17-3-17-7z" fill="#b8913f"/>
</svg>