<svg xmlns="http://www.w3.org/2000/svg" width="520" height="300" viewBox="0 0 520 300">
  <rect width="520" height="300" rx="28" fill="#FBF5E8"/>
  <rect x="7" y="7" width="506" height="286" rx="22" fill="none" stroke="#0D6E69" stroke-opacity=".16" stroke-width="3"/>
  
  <path d="M 182 247 Q 260 186 338 247" fill="#0D6E69" stroke="#0A3F3C" stroke-width="5"/>
  <circle cx="260" cy="107" r="61" fill="#D9AD85" stroke="#0A3F3C" stroke-width="5"/>
  <path d="M 215 78 Q 260 43 305 78" fill="none" stroke="#0D6E69" stroke-width="10" stroke-linecap="round"/>
  <path d="M 238 101 q 9 -7 18 0 M 270 101 q 9 -7 18 0" fill="none" stroke="#0A3F3C" stroke-width="4" stroke-linecap="round"/>
  <path d="M 249 130 Q 260 142 271 130" fill="none" stroke="#0A3F3C" stroke-width="4" stroke-linecap="round"/>
  <path d="M 260 196 C 226 163 195 207 260 254 C 325 207 294 163 260 196 Z" fill="#D6AE52" stroke="#0A3F3C" stroke-width="4"/>
<path d="M 376 64 C 358.75 84.7, 359.9 103.1, 376 110 C 392.1 103.1, 393.25 84.7, 376 64 Z" fill="#5BAECA" stroke="#0A3F3C" stroke-width="2"/>
</svg>
